{
  "accessors": [
    {
      "bufferView": 2,
      "componentType": 5126,
      "count": 29819,
      "max": [
        471.60311889648438,
        -87.521957397460938,
        1048.0880126953125
      ],
      "min": [
        -90.9620361328125,
        -378.69403076171875,
        546.4517822265625
      ],
      "type": "VEC3"
    },
    {
      "bufferView": 2,
      "byteOffset": 357828,
      "componentType": 5126,
      "count": 29819,
      "max": [
        0.99971985816955566,
        0.99997276067733765,
        0.99999910593032837
      ],
      "min": [
        -0.99984592199325562,
        -0.99999576807022095,
        -1
      ],
      "type": "VEC3"
    },
    {
      "bufferView": 3,
      "componentType": 5126,
      "count": 29819,
      "max": [
        0.99993109703063965,
        0.99994903802871704,
        0.99998509883880615,
        1
      ],
      "min": [
        -0.99997079372406006,
        -0.99995297193527222,
        -0.99996298551559448,
        -1
      ],
      "type": "VEC4"
    },
    {
      "bufferView": 1,
      "componentType": 5126,
      "count": 29819,
      "max": [
        0.9310309886932373,
        0.99980700016021729
      ],
      "min": [
        0.00044699999853037298,
        0.00010299999848939478
      ],
      "type": "VEC2"
    },
    {
      "bufferView": 0,
      "componentType": 5125,
      "count": 169566,
      "max": [
        29818
      ],
      "min": [
        0
      ],
      "type": "SCALAR"
    }
  ],
  "asset": {
    "extras": {
      "author": "3D arena BIONORMIX® (https://sketchfab.com/3darena)",
      "license": "CC-BY-NC-4.0 (http://creativecommons.org/licenses/by-nc/4.0/)",
      "source": "https://sketchfab.com/models/30ab4982ae3b47eca70bf2d93557174a",
      "title": "Che Guevara"
    },
    "generator": "Sketchfab-3.29.3",
    "version": "2.0"
  },
  "bufferViews": [
    {
      "buffer": 0,
      "byteLength": 678264,
      "byteOffset": 0,
      "name": "floatBufferViews",
      "target": 34963
    },
    {
      "buffer": 0,
      "byteLength": 238552,
      "byteOffset": 678264,
      "byteStride": 8,
      "name": "floatBufferViews",
      "target": 34962
    },
    {
      "buffer": 0,
      "byteLength": 715656,
      "byteOffset": 916816,
      "byteStride": 12,
      "name": "floatBufferViews",
      "target": 34962
    },
    {
      "buffer": 0,
      "byteLength": 477104,
      "byteOffset": 1632472,
      "byteStride": 16,
      "name": "floatBufferViews",
      "target": 34962
    }
  ],
  "buffers": [
    {
      "byteLength": 2109576,
      "uri": "scene.bin"
    }
  ],
  "images": [
    {
      "uri": "textures/material_0.005_baseColor.png"
    }
  ],
  "materials": [
    {
      "doubleSided": true,
      "emissiveFactor": [
        0,
        0,
        0
      ],
      "name": "material_0.005",
      "pbrMetallicRoughness": {
        "baseColorFactor": [
          1,
          1,
          1,
          1
        ],
        "baseColorTexture": {
          "index": 0,
          "texCoord": 0
        },
        "metallicFactor": 0,
        "roughnessFactor": 0.59999999999999998
      }
    }
  ],
  "meshes": [
    {
      "primitives": [
        {
          "attributes": {
            "NORMAL": 1,
            "POSITION": 0,
            "TANGENT": 2,
            "TEXCOORD_0": 3
          },
          "indices": 4,
          "material": 0,
          "mode": 4
        }
      ]
    }
  ],
  "nodes": [
    {
      "children": [
        1
      ],
      "name": "RootNode (gltf orientation matrix)",
      "rotation": [
        -0.70710678118654746,
        -0,
        -0,
        0.70710678118654757
      ]
    },
    {
      "children": [
        2
      ],
      "name": "RootNode (model correction matrix)"
    },
    {
      "children": [
        3
      ],
      "name": "che-guevara.obj.cleaner"
    },
    {
      "mesh": 0,
      "name": ""
    }
  ],
  "samplers": [
    {
      "magFilter": 9729,
      "minFilter": 9987,
      "wrapS": 10497,
      "wrapT": 10497
    }
  ],
  "scene": 0,
  "scenes": [
    {
      "name": "OSG_Scene",
      "nodes": [
        0
      ]
    }
  ],
  "textures": [
    {
      "sampler": 0,
      "source": 0
    }
  ]
}

