{
  "accessors": [
    {
      "bufferView": 2,
      "componentType": 5126,
      "count": 1051,
      "max": [
        7.4428176879882812,
        15.3897705078125,
        5.9948883056640625
      ],
      "min": [
        -7.5880279541015625,
        -0.012569546699523926,
        -3.0412559509277344
      ],
      "type": "VEC3"
    },
    {
      "bufferView": 2,
      "byteOffset": 12612,
      "componentType": 5126,
      "count": 1051,
      "max": [
        0.99693936109542847,
        0.99997508525848389,
        0.99994099140167236
      ],
      "min": [
        -0.99968677759170532,
        -0.99022310972213745,
        -0.9985765814781189
      ],
      "type": "VEC3"
    },
    {
      "bufferView": 3,
      "componentType": 5126,
      "count": 1051,
      "max": [
        0.99970239400863647,
        0.99966919422149658,
        0.99553316831588745,
        1
      ],
      "min": [
        -0.9976235032081604,
        -0.99631601572036743,
        -0.99944329261779785,
        -1
      ],
      "type": "VEC4"
    },
    {
      "bufferView": 1,
      "componentType": 5126,
      "count": 1051,
      "max": [
        0.99192076921463013,
        0.99192076921463013
      ],
      "min": [
        0.0080792913213372231,
        0.0080793062224984169
      ],
      "type": "VEC2"
    },
    {
      "bufferView": 0,
      "componentType": 5125,
      "count": 5733,
      "max": [
        1050
      ],
      "min": [
        0
      ],
      "type": "SCALAR"
    }
  ],
  "asset": {
    "extras": {
      "author": "Damco (https://sketchfab.com/jondameron5)",
      "license": "CC-BY-4.0 (http://creativecommons.org/licenses/by/4.0/)",
      "source": "https://sketchfab.com/models/6b60665acb9b4399b418be035389de9a",
      "title": "Stack of Christmas Gifts"
    },
    "generator": "Sketchfab-3.18.7",
    "version": "2.0"
  },
  "bufferViews": [
    {
      "buffer": 0,
      "byteLength": 22932,
      "byteOffset": 0,
      "name": "floatBufferViews",
      "target": 34963
    },
    {
      "buffer": 0,
      "byteLength": 8408,
      "byteOffset": 22932,
      "byteStride": 8,
      "name": "floatBufferViews",
      "target": 34962
    },
    {
      "buffer": 0,
      "byteLength": 25224,
      "byteOffset": 31340,
      "byteStride": 12,
      "name": "floatBufferViews",
      "target": 34962
    },
    {
      "buffer": 0,
      "byteLength": 16816,
      "byteOffset": 56564,
      "byteStride": 16,
      "name": "floatBufferViews",
      "target": 34962
    }
  ],
  "buffers": [
    {
      "byteLength": 73380,
      "uri": "scene.bin"
    }
  ],
  "images": [
    {
      "uri": "textures/giftMat_baseColor.png"
    }
  ],
  "materials": [
    {
      "doubleSided": true,
      "emissiveFactor": [
        0,
        0,
        0
      ],
      "name": "giftMat",
      "pbrMetallicRoughness": {
        "baseColorFactor": [
          1,
          1,
          1,
          1
        ],
        "baseColorTexture": {
          "index": 0,
          "texCoord": 0
        },
        "metallicFactor": 0,
        "roughnessFactor": 0.59999999999999998
      }
    }
  ],
  "meshes": [
    {
      "name": "giftGeo_giftMat_0",
      "primitives": [
        {
          "attributes": {
            "NORMAL": 1,
            "POSITION": 0,
            "TANGENT": 2,
            "TEXCOORD_0": 3
          },
          "indices": 4,
          "material": 0,
          "mode": 4
        }
      ]
    }
  ],
  "nodes": [
    {
      "children": [
        1
      ],
      "name": "RootNode (gltf orientation matrix)",
      "rotation": [
        -0.70710678118654746,
        -0,
        -0,
        0.70710678118654757
      ]
    },
    {
      "children": [
        2
      ],
      "name": "RootNode (model correction matrix)"
    },
    {
      "children": [
        3
      ],
      "matrix": [
        1,
        0,
        0,
        0,
        0,
        0,
        1,
        0,
        0,
        -1,
        0,
        0,
        0,
        0,
        0,
        1
      ],
      "name": "347a6dc21a9e48febcdddaa9accc6a7a.fbx"
    },
    {
      "children": [
        4
      ],
      "name": "RootNode"
    },
    {
      "children": [
        5
      ],
      "name": "giftGeo"
    },
    {
      "mesh": 0,
      "name": "giftGeo_giftMat_0"
    }
  ],
  "samplers": [
    {
      "magFilter": 9729,
      "minFilter": 9987,
      "wrapS": 10497,
      "wrapT": 10497
    }
  ],
  "scene": 0,
  "scenes": [
    {
      "name": "OSG_Scene",
      "nodes": [
        0
      ]
    }
  ],
  "textures": [
    {
      "sampler": 0,
      "source": 0
    }
  ]
}

