<?xml version="1.0" encoding="utf-8"?>
<!-- Generator: Adobe Illustrator 19.2.0, SVG Export Plug-In . SVG Version: 6.00 Build 0)  -->
<svg version="1.1" id="Layer_1" xmlns="http://www.w3.org/2000/svg" xmlns:xlink="http://www.w3.org/1999/xlink" x="0px" y="0px"
	 viewBox="0 0 127.5 137" style="enable-background:new 0 0 127.5 137;" xml:space="preserve">
<style type="text/css">
	.st0{fill:#BCBEC0;}
	.st1{fill:#C7203B;}
	.st2{fill:#4177BB;}
</style>
<g>
	<g>
		<path class="st0" d="M28.4,105c0.6-3.2,1.1-5.8,1.8-8.1c-1.8-0.3-3.8-0.7-6.1-1.3c-4.8-1.2-8-2.1-12.3-5.6c-1.6-1.3-2.9-2.6-4.1-4
			c3.5,12.3,10.7,23,20.4,30.8C27.2,112.4,27.7,109.3,28.4,105z"/>
		<path class="st0" d="M70.8,13.4c4.6,4.3,8.4,10.9,9.8,17.1c3.8-2.7,8.1-4.7,12.2-5.6c1.7-0.4,3.6-0.6,6-0.6c1.1,0,2.2,0,3.3,0.1
			c1.1,0,2.1,0.1,3.2,0.1c0.7,0,1.4,0,2.2-0.1C96.5,14.6,82.2,8.6,66.4,8.6c-0.9,0-1.9,0-2.8,0.1C66.1,10,68.7,11.4,70.8,13.4z"/>
		<path class="st0" d="M120,58.9c-2.5,4.3-4.6,7.4-7.1,10.3c1,0.8,2.1,1.6,3.2,2.6c3.8,3.1,6.3,5.3,8.7,10.3
			c0.3,0.6,0.5,1.1,0.7,1.7c1.1-4.6,1.7-9.4,1.7-14.4c0-6.9-1.2-13.6-3.3-19.8C123.2,53.2,121.9,55.6,120,58.9z"/>
		<path class="st0" d="M102.8,113.3c-1.3,0.2-2.7,0.3-4.1,0.3c-6.8,0-13.9-2.1-18.5-5.4c-0.1-0.1-0.2-0.2-0.4-0.3
			c-0.1,0.4-0.2,0.8-0.3,1.3c-1.7,6.8-7.4,14.5-13.9,18.6c-1.5,0.9-3,1.6-4.6,2.2c1.8,0.2,3.6,0.3,5.4,0.3
			c17.7,0,33.6-7.6,44.8-19.6C108.5,111.8,105.8,112.9,102.8,113.3z"/>
		<path class="st0" d="M11.7,58.7c2-2.3,4.1-4.6,6.7-6.3c3.9-2.6,9.1-4.5,14.2-5.2c-0.3-0.9-0.6-1.9-0.8-2.8
			c-1.4-5.7-1.6-10.6-1.6-15.1c0-3.6,0.1-6.3,1.1-9.5C17,29.8,7.3,45.9,5.8,64.3C7.9,62.8,9.8,60.8,11.7,58.7z"/>
	</g>
	<path class="st1" d="M55.8,68.8c-0.4,6.4,4.5,11.8,10.9,12.2c6.4,0.4,11.9-4.5,12.2-10.9c0.4-6.3-4.5-11.8-10.9-12.2
		c-0.2,0-0.4,0-0.7,0C61.2,57.9,56.1,62.7,55.8,68.8z"/>
	<path class="st2" d="M121.3,103.2l0.5,0c0,0,0,0,0,0c0.5,0,1.1,0,1.6,0.1c1.5,0.1,2.9,0.4,4.2,0.9c-0.3-0.7-0.6-1.3-1-2
		c-1-1.9-2-3.9-2.4-6l-0.5-2.3c-0.7-3.4-1.4-6.7-2.9-9.8c-1.9-4-3.6-5.6-7.5-8.8c-1.5-1.2-2.9-2.3-4.1-3.2l-3-2.1l2.5-2.7
		c2.7-2.9,4.8-5.9,7.4-10.5c2.5-4.3,3.5-6.5,3.9-10.9c0.3-3.5-0.2-6.8-0.8-10.2l-0.4-2.3c-0.3-2.1-0.1-4.3,0.1-6.5
		c0.1-0.7,0.2-1.4,0.2-2.2c-1,0.9-2.2,1.7-3.6,2.3c-0.6,0.3-1.3,0.6-1.9,0.8c-3.1,1.1-6.2,1.2-8.5,1.2c-1.1,0-2.2,0-3.3-0.1
		c-3.6-0.1-6-0.1-8.1,0.4c-4,0.9-8.5,3.1-12,6l-4.5,3.6l-0.8-5.7c-0.8-5.7-4.3-12.3-8.8-16.4c-1.9-1.8-4.3-3-6.8-4.4
		c-3.4-1.8-6.9-3.7-9.6-6.9c-0.4-0.5-0.9-1.1-1.3-1.7c-0.9-1.3-1.5-2.5-1.9-3.8c-0.3,0.6-0.6,1.3-0.9,2c-0.9,2-1.8,4-3.1,5.7
		l-1.5,1.8c-2.2,2.7-4.3,5.3-5.8,8.4c-1.9,4-2.1,6.4-2.1,11.3c0,4.2,0.1,8.8,1.4,14c0.3,1.2,0.7,2.5,1.2,3.8l1.5,4l-4.3,0.4
		c-4.9,0.4-10,2.2-13.7,4.6c-2.2,1.4-4,3.5-5.9,5.6c-2.6,2.9-5.2,5.8-9,7.7c-0.6,0.3-1.2,0.6-1.9,0.8c-1.4,0.5-2.8,0.9-4.1,1
		c0.6,0.5,1.1,0.9,1.7,1.4c1.7,1.3,3.5,2.7,4.8,4.4l1.4,1.9c2.1,2.8,4.1,5.4,6.8,7.6c3.4,2.8,5.7,3.5,10.5,4.7
		c2.7,0.7,5,1.1,7.1,1.4l3.8,0.5L35,96.8c-0.9,2.6-1.5,5.3-2.1,8.9c-0.9,4.9-1.1,7.3,0.1,11.5c0.9,3.4,2.5,6.3,4.2,9.3l1.1,2.1
		c1,1.9,1.6,4.2,2.1,6.2c0.2,0.7,0.4,1.4,0.5,2.1c0.7-1.2,1.5-2.3,2.6-3.4c0.5-0.5,1-1,1.5-1.4c3.3-2.7,7.1-3.9,10.7-5.1
		c2.7-0.9,5.3-1.7,7.5-3.1c5.4-3.5,10.6-10.3,11.9-15.9c0.2-1,0.5-2,0.7-3l1.1-5l4.1,3c0.6,0.5,1.2,0.9,1.8,1.4
		c3.9,2.8,10,4.5,15.9,4.5c1.2,0,2.4-0.1,3.5-0.2c2.5-0.4,5-1.4,7.7-2.5C113.2,104.9,117,103.3,121.3,103.2z M84.8,70.4
		c-0.5,9.2-8.2,16.4-17.4,16.4c-0.3,0-0.7,0-1,0c-4.7-0.3-8.9-2.3-12.1-5.8c-3.1-3.5-4.7-7.9-4.4-12.6c0.5-9.5,8.7-17,18.4-16.4
		c4.7,0.3,8.9,2.3,12.1,5.8C83.5,61.3,85.1,65.8,84.8,70.4z"/>
</g>
</svg>
