<?xml version="1.0" encoding="utf-8"?>
<!-- Generator: Adobe Illustrator 19.2.0, SVG Export Plug-In . SVG Version: 6.00 Build 0)  -->
<svg version="1.1" id="Layer_1" xmlns="http://www.w3.org/2000/svg" xmlns:xlink="http://www.w3.org/1999/xlink" x="0px" y="0px"
	 viewBox="0 0 466.3 137" style="enable-background:new 0 0 466.3 137;" xml:space="preserve">
<style type="text/css">
	.st0{fill:#4177BB;}
	.st1{fill:#C7203B;}
	.st2{fill:#BCBEC0;}
</style>
<g>
	<path class="st0" d="M155.9,29.7h15.8c11.5,0,17.3,6.7,17.3,20.1c0,4-0.6,7.4-1.9,10.2c-1.2,2.9-3.4,5.2-6.6,6.9l10.6,31.3h-10.4
		l-9.1-29.2h-5.9v29.2h-9.8V29.7z M165.8,60.3h5.6c1.7,0,3.1-0.2,4.1-0.7c1-0.5,1.8-1.2,2.4-2.1c0.5-0.9,0.9-2,1.1-3.3
		c0.2-1.3,0.3-2.8,0.3-4.6c0-1.7-0.1-3.3-0.3-4.6c-0.2-1.3-0.6-2.4-1.2-3.4c-0.6-0.9-1.5-1.6-2.5-2.1c-1.1-0.4-2.5-0.7-4.3-0.7h-5.1
		V60.3z"/>
	<path class="st0" d="M205.3,77.5v6.6c0,1.5,0.4,2.7,1.3,3.6c0.9,0.8,2,1.2,3.5,1.2c1.9,0,3.1-0.5,3.7-1.6c0.6-1.1,1-2.2,1.1-3.3
		h9.8c0,2-0.3,4-1,5.8c-0.7,1.8-1.7,3.3-2.9,4.6c-1.3,1.3-2.8,2.4-4.6,3.2c-1.8,0.8-3.8,1.2-6.1,1.2c-3,0-5.6-0.6-7.8-1.9
		c-2.2-1.3-3.8-3-5-5.1c-0.7-1.3-1.2-2.8-1.4-4.4c-0.3-1.7-0.4-3.5-0.4-5.5V65.7c0-2,0.1-3.8,0.4-5.5c0.3-1.7,0.7-3.1,1.4-4.4
		c1.2-2.1,2.8-3.8,5-5.1c2.2-1.3,4.8-1.9,7.8-1.9c2.2,0,4.3,0.4,6.1,1.2c1.8,0.8,3.4,1.8,4.6,3.2c1.2,1.4,2.2,3,2.9,4.9
		c0.7,1.9,1,3.8,1,6v13.5H205.3z M212.5,29.4h10.4l-12.7,13.6h-6.3L212.5,29.4z M205.3,69.8h9.6v-5.6c0-1.9-0.4-3.3-1.3-4.2
		c-0.9-0.9-2-1.4-3.5-1.4c-1.5,0-2.6,0.5-3.5,1.4c-0.9,0.9-1.3,2.3-1.3,4.2V69.8z"/>
	<path class="st0" d="M249.7,63c-0.1-1.7-0.6-2.9-1.6-3.8c-1-0.8-2.1-1.2-3.4-1.2c-1.5,0-2.7,0.5-3.6,1.5c-0.8,1-1.3,2.1-1.3,3.4
		c0,0.9,0.2,1.8,0.7,2.6c0.4,0.9,1.6,1.6,3.5,2.4l5.8,2.3c3.7,1.4,6.2,3.3,7.6,5.8c1.4,2.4,2.1,5.1,2.1,8c0,2-0.4,4-1.1,5.7
		c-0.7,1.8-1.7,3.3-3,4.7c-1.3,1.3-2.8,2.4-4.6,3.2c-1.8,0.8-3.8,1.2-5.9,1.2c-1.9,0-3.8-0.3-5.5-1c-1.7-0.6-3.3-1.6-4.6-2.8
		c-1.3-1.2-2.4-2.7-3.2-4.6c-0.8-1.8-1.3-4-1.3-6.4h9.2c0.2,1.3,0.7,2.6,1.4,3.7c0.7,1.2,2,1.7,3.9,1.7c1.4,0,2.7-0.5,3.8-1.4
		c1.1-0.9,1.7-2.2,1.7-3.9c0-1.3-0.4-2.5-1.1-3.5c-0.7-1-2-1.8-3.8-2.5l-4.7-1.7c-3.1-1.2-5.5-2.9-7.3-5.1c-1.8-2.3-2.6-5.1-2.6-8.3
		c0-2.1,0.4-4,1.2-5.7c0.8-1.8,1.8-3.3,3.1-4.5c1.3-1.3,2.8-2.2,4.6-2.9c1.7-0.7,3.6-1.1,5.6-1.1c2,0,3.8,0.4,5.5,1.1
		c1.7,0.7,3.2,1.7,4.4,3c1.2,1.3,2.2,2.8,2.9,4.5c0.7,1.8,1.1,3.6,1.1,5.6H249.7z"/>
	<path class="st0" d="M264.9,65.7c0-2,0.1-3.8,0.4-5.5c0.3-1.7,0.7-3.1,1.4-4.4c1.2-2.1,2.8-3.8,5-5.1c2.2-1.3,4.8-1.9,7.8-1.9
		c3,0,5.6,0.6,7.8,1.9c2.2,1.3,3.8,3,5,5.1c0.7,1.3,1.2,2.8,1.4,4.4c0.3,1.7,0.4,3.5,0.4,5.5v16.1c0,2-0.1,3.8-0.4,5.5
		c-0.3,1.7-0.7,3.1-1.4,4.4c-1.2,2.1-2.8,3.8-5,5.1c-2.2,1.3-4.8,1.9-7.8,1.9c-3,0-5.6-0.6-7.8-1.9c-2.2-1.3-3.8-3-5-5.1
		c-0.7-1.3-1.2-2.8-1.4-4.4c-0.3-1.7-0.4-3.5-0.4-5.5V65.7z M274.7,83.3c0,1.9,0.4,3.3,1.3,4.2c0.9,0.9,2,1.4,3.5,1.4
		c1.5,0,2.6-0.5,3.5-1.4c0.9-0.9,1.3-2.3,1.3-4.2V64.2c0-1.9-0.4-3.3-1.3-4.2c-0.9-0.9-2-1.4-3.5-1.4c-1.5,0-2.6,0.5-3.5,1.4
		c-0.9,0.9-1.3,2.3-1.3,4.2V83.3z"/>
</g>
<g>
	<path class="st1" d="M379.3,49.4h9.8v4.7h0.2c1-1.5,2.3-2.8,3.7-3.8c1.4-1,3.3-1.5,5.5-1.5c1.2,0,2.4,0.2,3.7,0.6
		c1.2,0.4,2.3,1.1,3.3,2.1c1,1,1.7,2.2,2.3,3.7c0.6,1.5,0.9,3.4,0.9,5.5v37.4h-9.8V64.4c0-1.8-0.4-3.2-1.2-4.2c-0.8-1-2-1.5-3.6-1.5
		c-1.9,0-3.1,0.6-3.9,1.7c-0.7,1.2-1,2.8-1,5v32.8h-9.8V49.4z"/>
	<path class="st1" d="M416.7,34.6h9.8v14.8h6.1v7.7h-6.1v27c0,1.2,0.1,2.1,0.3,2.7c0.2,0.6,0.6,1.1,1.1,1.4c0.5,0.3,1.1,0.5,1.9,0.6
		c0.8,0.1,1.7,0.1,2.8,0.1v9.2h-4c-2.2,0-4.1-0.4-5.6-1.1c-1.5-0.7-2.7-1.6-3.6-2.7c-0.9-1.1-1.6-2.3-2-3.7c-0.4-1.4-0.6-2.7-0.6-4
		V57.1h-4.9v-7.7h4.9V34.6z"/>
	<path class="st1" d="M445.3,77.5v6.6c0,1.5,0.4,2.7,1.3,3.6c0.9,0.8,2,1.2,3.5,1.2c1.9,0,3.1-0.5,3.7-1.6c0.6-1.1,1-2.2,1.1-3.3
		h9.8c0,2-0.3,4-1,5.8c-0.7,1.8-1.6,3.3-2.9,4.6c-1.3,1.3-2.8,2.4-4.6,3.2c-1.8,0.8-3.8,1.2-6.1,1.2c-3,0-5.6-0.6-7.8-1.9
		c-2.2-1.3-3.8-3-5-5.1c-0.7-1.3-1.2-2.8-1.4-4.4c-0.3-1.7-0.4-3.5-0.4-5.5V65.7c0-2,0.1-3.8,0.4-5.5c0.3-1.7,0.7-3.1,1.4-4.4
		c1.2-2.1,2.8-3.8,5-5.1c2.2-1.3,4.8-1.9,7.8-1.9c2.2,0,4.3,0.4,6.1,1.2c1.8,0.8,3.4,1.8,4.6,3.2c1.2,1.4,2.2,3,2.9,4.9
		c0.7,1.9,1,3.8,1,6v13.5H445.3z M452.5,29.4h10.4l-12.7,13.6h-6.3L452.5,29.4z M445.3,69.8h9.6v-5.6c0-1.9-0.4-3.3-1.3-4.2
		c-0.9-0.9-2-1.4-3.5-1.4c-1.5,0-2.6,0.5-3.5,1.4c-0.9,0.9-1.3,2.3-1.3,4.2V69.8z"/>
	<path class="st1" d="M337,49.4h-9.8v-2.2c0-2.2-0.5-4.2-1.6-5.8c-1.1-1.6-2.8-2.5-5.3-2.5c-1.4,0-2.5,0.3-3.3,0.8
		c-0.9,0.5-1.5,1.2-2,2c-0.5,0.8-0.8,1.7-1,2.8c-0.2,1.1-0.3,2.2-0.3,3.3c0,1.3,0,2.5,0.1,3.4c0.1,0.9,0.3,1.7,0.7,2.4
		c0.4,0.7,0.9,1.3,1.7,1.8c0.7,0.5,1.7,1,3,1.5l7.5,3c2.2,0.8,3.9,1.8,5.3,2.9c1.3,1.1,2.4,2.4,3.1,3.9c0.7,1.5,1.2,3.2,1.5,5.2
		c0.3,2,0.4,4.2,0.4,6.7c0,2.9-0.3,5.6-0.9,8c-0.6,2.5-1.5,4.6-2.8,6.4c-1.3,1.8-3.1,3.2-5.2,4.2c-2.2,1-4.8,1.5-8,1.5
		c-2.4,0-4.6-0.4-6.6-1.3c-2.1-0.8-3.8-2-5.3-3.4c-1.5-1.4-2.6-3.2-3.5-5.1c-0.9-2-1.3-4.1-1.3-6.4v-3.7h9.8v3.1
		c0,1.8,0.5,3.4,1.6,4.9c1.1,1.4,2.8,2.2,5.3,2.2c1.7,0,3-0.2,3.9-0.7c0.9-0.5,1.6-1.2,2.1-2c0.5-0.9,0.8-1.9,0.9-3.2
		c0.1-1.3,0.2-2.7,0.2-4.2c0-1.8-0.1-3.3-0.2-4.4c-0.1-1.2-0.4-2.1-0.8-2.8c-0.4-0.7-1-1.3-1.7-1.7c-0.7-0.5-1.7-0.9-2.9-1.4l-7-2.9
		c-4.2-1.7-7.1-4-8.5-6.9c-1.4-2.9-2.2-6.4-2.2-10.7c0-2.6,0.3-5,1-7.3c0.7-2.3,1.8-4.3,3.1-6c1.4-1.7,3.1-3,5.2-4
		c2.1-1,4.6-1.5,7.4-1.5c2.4,0,4.7,0.5,6.7,1.3c2,0.9,3.8,2.1,5.2,3.6c1.4,1.5,2.5,3.1,3.3,5c0.8,1.8,1.2,3.7,1.2,5.6V49.4z"/>
	<path class="st1" d="M362.3,93.1h-0.2c-1.3,1.8-2.6,3.2-3.9,4.1c-1.3,1-3.2,1.4-5.5,1.4c-1.2,0-2.3-0.2-3.6-0.5
		c-1.2-0.3-2.4-1-3.4-1.9c-1.1-0.9-1.9-2.2-2.6-3.9c-0.7-1.7-1-3.9-1-6.6c0-2.8,0.2-5.2,0.7-7.3c0.5-2.1,1.3-3.8,2.5-5.2
		c1.2-1.4,2.8-2.4,4.8-3.1c2-0.7,4.5-1,7.6-1c0.7,0,1.4,0,2.1,0.1c0.7,0.1,1.6,0.1,2.6,0.2v-5.1c0-1.7-0.4-3.1-1.1-4.1
		c-0.7-1.1-2-1.6-3.8-1.6c-1.3,0-2.4,0.4-3.5,1.2c-1.1,0.8-1.8,2.1-2.1,3.7h-9.5c0.3-4.4,1.8-7.9,4.4-10.6c1.3-1.3,2.8-2.3,4.6-3
		c1.8-0.7,3.8-1.1,6.1-1.1c2.1,0,4,0.3,5.8,1c1.8,0.6,3.3,1.6,4.7,2.9c1.3,1.3,2.4,2.9,3.1,4.8c0.8,1.9,1.2,4.2,1.2,6.7v34h-9.8
		V93.1z M362.3,77.2c-1.1-0.2-2-0.3-2.7-0.3c-2.1,0-3.9,0.5-5.4,1.5c-1.5,1-2.3,2.8-2.3,5.4c0,1.9,0.5,3.4,1.3,4.5
		c0.9,1.2,2.1,1.7,3.7,1.7c1.7,0,3-0.6,3.9-1.6c0.9-1.1,1.4-2.6,1.4-4.6V77.2z"/>
</g>
<g>
	<path d="M174.4,122.4c-0.5,1.6-1.3,4.1-1.8,5.3c-0.9,0.2-3.8,0.8-6.1,0.8c-8.4,0-12-5.8-12-11.1c0-7.1,5.3-11.8,12.9-11.8
		c2.6,0,4.9,0.6,5.8,0.9c0.3,1.9,0.5,3.3,0.7,5.4l-1.3,0.3c-1-3.8-3.1-5-6.1-5c-4.9,0-7.7,4.5-7.7,9.6c0,6.1,3.4,10.3,7.9,10.3
		c2.9,0,4.7-1.7,6.4-5.1L174.4,122.4z"/>
	<path d="M184.4,112.6c4.4,0,7.4,3.5,7.4,7.6c0,5.5-3.9,8.2-7.5,8.2c-5,0-7.7-3.8-7.7-7.5C176.7,115.2,181,112.6,184.4,112.6
		L184.4,112.6z M184,113.9c-1.6,0-3.2,1.9-3.2,5.7c0,4.2,1.5,7.4,3.9,7.4c1.6,0,3.1-1.2,3.1-5.9C187.8,116.8,186.4,113.9,184,113.9
		L184,113.9z"/>
	<path d="M193.2,128v-1.1c2-0.3,2.3-0.4,2.3-2.6v-15.4c0-2.1-0.2-2.2-2.2-2.4v-1.1c1.9-0.2,4.2-0.7,5.7-1.2v20
		c0,2.2,0.2,2.3,2.3,2.6v1.1H193.2z"/>
	<path d="M210.8,112.6c4.4,0,7.4,3.5,7.4,7.6c0,5.5-3.9,8.2-7.5,8.2c-5,0-7.7-3.8-7.7-7.5C203,115.2,207.3,112.6,210.8,112.6
		L210.8,112.6z M210.3,113.9c-1.6,0-3.2,1.9-3.2,5.7c0,4.2,1.5,7.4,3.9,7.4c1.6,0,3.1-1.2,3.1-5.9
		C214.1,116.8,212.8,113.9,210.3,113.9L210.3,113.9z"/>
	<path d="M238.7,128v-1.1c1.7-0.2,2-0.4,2-2.5v-5.8c0-2.6-1.1-3.5-2.6-3.5c-0.9,0-1.9,0.4-3.1,1.4c0,0.4,0.1,0.8,0.1,1.4v6.7
		c0,1.9,0.3,2.1,1.9,2.4v1.1h-7.5v-1.1c1.8-0.2,2-0.4,2-2.4v-6c0-2.4-1-3.4-2.6-3.4c-1.1,0-2.1,0.6-3.1,1.4v8c0,2,0.2,2.2,1.7,2.4
		v1.1h-7.6v-1.1c2.1-0.2,2.3-0.4,2.3-2.5v-7c0-2-0.1-2.2-1.9-2.5v-1.1c1.6-0.2,3.7-0.7,5.4-1.3v2.6c0.7-0.5,1.4-1,2.3-1.5
		c0.9-0.6,1.8-1,2.9-1c1.7,0,3.1,1.1,3.8,2.7c0.9-0.6,1.7-1.2,2.6-1.8c0.7-0.5,1.6-0.9,2.6-0.9c2.8,0,4.4,2,4.4,5.3v6.5
		c0,2,0.2,2.2,2,2.4v1.1H238.7z"/>
	<path d="M254.7,113.1c0.8-0.4,1.3-0.6,1.8-0.6c3.8,0,6.8,3.3,6.8,7.2c0,5-3.9,8.6-8.6,8.6c-1.7,0-3.4-0.3-5.4-1.3v-18.3
		c0-1.9-0.1-2.2-2.2-2.3v-1.1c1.7-0.2,4.1-0.7,5.8-1.2v9.7L254.7,113.1z M252.8,124.1c0,0.5,0.1,0.8,0.2,1.1c0.2,0.6,1,1.6,2.4,1.7
		c2.2,0,3.9-2.1,3.9-6.2c0-4.1-2.2-5.9-4.6-5.9c-0.7,0-1.4,0.2-1.9,0.4V124.1z"/>
	<path d="M265.1,128v-1.1c2-0.3,2.2-0.4,2.2-2.7v-6.7c0-2.2-0.2-2.2-2-2.5v-1.1c2-0.3,3.9-0.7,5.6-1.3v11.6c0,2.3,0.2,2.5,2.3,2.7
		v1.1H265.1z M266.7,108.1c0-1.3,1-2.2,2.2-2.2c1.2,0,2.1,0.9,2.1,2.2c0,1.1-0.9,2.1-2.2,2.1C267.7,110.3,266.7,109.3,266.7,108.1z"
		/>
	<path d="M287.4,124.9c-2.1,2.8-4.5,3.4-5.8,3.4c-4.3,0-6.8-3.3-6.8-7.3c0-2.6,1.1-4.7,2.4-6.1c1.4-1.5,3.3-2.4,5-2.4h0
		c3,0,5.3,2.6,5.3,5.4c0,0.7-0.1,1.2-0.9,1.3c-0.6,0.1-4.8,0.4-8.3,0.6c0.1,3.9,2.3,5.7,4.7,5.7c1.4,0,2.6-0.5,3.8-1.5L287.4,124.9z
		 M278.5,118.2c1.6,0,3.1,0,4.8-0.1c0.5,0,0.7-0.1,0.7-0.7c0-1.7-0.9-3.4-2.4-3.4C280.1,114,278.9,115.6,278.5,118.2z"/>
	<path d="M298,121.4h-8.1l0.5-2.3h8.1L298,121.4z"/>
	<path d="M313.3,116.1c3.4,0.5,6,2.1,6,5.3c0,2.3-1.2,4.1-3.2,5.1c-1.7,1-4.1,1.4-6.8,1.4h-8v-1.3c2.7-0.3,2.9-0.4,2.9-3.2v-13
		c0-2.8-0.2-3-2.7-3.2v-1.3h9.3c2.5,0,4.1,0.3,5.3,1.1c1.2,0.8,1.9,2.2,1.9,3.8c0,3.2-2.7,4.5-4.7,5V116.1z M309.2,115.6
		c3.2,0,4.8-1.3,4.8-4.1c0-2.7-1.5-4.1-4-4.1c-0.8,0-1.4,0.1-1.6,0.4c-0.3,0.2-0.4,0.6-0.4,1.5v6.3H309.2z M308,123.5
		c0,2.3,0.6,3,2.6,3c2.3,0,4.5-1.4,4.5-4.7c0-3.3-2.2-4.8-6-4.8H308V123.5z"/>
	<path d="M327.2,116.1c1.2-2,2.5-3.5,3.9-3.5c1.3,0,2.1,1,2.1,2c0,1-0.6,1.8-1.4,2.2c-0.4,0.2-0.7,0.1-0.9-0.1
		c-0.5-0.4-0.9-0.7-1.5-0.7c-0.8,0-1.6,0.6-2.2,2.3v6.1c0,2.1,0.1,2.3,2.8,2.5v1.1h-8.6v-1.1c2-0.2,2.2-0.4,2.2-2.5v-7.1
		c0-1.9-0.2-2.1-1.9-2.4v-1c1.9-0.2,3.7-0.6,5.5-1.3L327.2,116.1L327.2,116.1z"/>
	<path d="M334.7,128v-1.1c2-0.3,2.2-0.4,2.2-2.7v-6.7c0-2.2-0.2-2.2-2-2.5v-1.1c2-0.3,3.9-0.7,5.6-1.3v11.6c0,2.3,0.2,2.5,2.3,2.7
		v1.1H334.7z M336.3,108.1c0-1.3,1-2.2,2.2-2.2c1.2,0,2.1,0.9,2.1,2.2c0,1.1-0.9,2.1-2.2,2.1C337.4,110.3,336.3,109.3,336.3,108.1z"
		/>
	<path d="M351.1,128c-0.6,0.2-1.1,0.4-1.5,0.4c-2.3,0-3.7-1.3-3.7-4.2v-9.5h-2.2l-0.1-0.4l0.9-1.2h1.4v-2.3l3.1-2.5l0.5,0.2v4.6h3.5
		c0.3,0.4,0.3,1.4-0.2,1.7h-3.3v8.3c0,2.6,1.1,3,1.9,3c0.7,0,1.4-0.2,1.9-0.5l0.3,1.2L351.1,128z"/>
	<path d="M366.1,128.4c-0.7,0-1.4-0.3-1.8-0.7c-0.5-0.4-0.7-0.9-0.9-1.4c-1.3,0.9-2.9,2-3.7,2c-2.6,0-4.4-2.1-4.4-4.3
		c0-1.7,0.9-2.7,2.7-3.4c1.9-0.6,4.6-1.6,5.3-2.3v-0.7c0-2.2-0.9-3.4-2.4-3.4c-0.6,0-0.9,0.2-1.3,0.6c-0.4,0.5-0.7,1.3-0.9,2.3
		c-0.2,0.7-0.7,1-1.3,1c-0.8,0-1.9-0.7-1.9-1.6c0-0.6,0.4-0.9,1.1-1.5c1.1-0.8,3.4-2,5.3-2.4c1.3,0,2.3,0.3,3.1,1
		c1.3,1.1,1.7,2.4,1.7,4.2v5.9c0,1.6,0.5,2.1,1.1,2.1c0.4,0,0.9-0.2,1.2-0.3l0.4,1.1L366.1,128.4z M363.3,119.9
		c-0.7,0.3-1.8,0.9-2.5,1.2c-1.1,0.6-1.7,1.2-1.7,2.3c0,1.8,1.3,2.5,2.2,2.5c0.7,0,1.4-0.4,2-0.8L363.3,119.9z"/>
	<path d="M380,128v-1.1c1.6-0.3,1.8-0.4,1.8-2.6v-5.8c0-2.4-0.9-3.5-2.6-3.5c-1.1,0-2.1,0.6-3,1.4v8c0,2.1,0.1,2.2,1.8,2.5v1.1h-7.7
		v-1.1c2.1-0.3,2.3-0.4,2.3-2.5v-7c0-2.1-0.2-2.2-1.9-2.4v-1.1c1.9-0.3,3.8-0.7,5.5-1.3v2.6c0.6-0.5,1.3-1,2.1-1.5
		c0.9-0.6,1.7-1,2.7-1c2.7,0,4.4,2,4.4,5.3v6.5c0,2.1,0.2,2.2,2.1,2.5v1.1H380z"/>
	<path d="M398.8,128v-1.1c1.6-0.3,1.8-0.4,1.8-2.6v-5.8c0-2.4-0.9-3.5-2.6-3.5c-1,0-2.1,0.6-3,1.4v8c0,2.1,0.1,2.2,1.8,2.5v1.1h-7.7
		v-1.1c2.1-0.3,2.3-0.4,2.3-2.5v-7c0-2.1-0.2-2.2-1.9-2.4v-1.1c1.9-0.3,3.8-0.7,5.5-1.3v2.6c0.6-0.5,1.3-1,2.1-1.5
		c0.9-0.6,1.7-1,2.7-1c2.8,0,4.4,2,4.4,5.3v6.5c0,2.1,0.2,2.2,2.1,2.5v1.1H398.8z"/>
	<path d="M408,128v-1.1c2-0.3,2.2-0.4,2.2-2.7v-6.7c0-2.2-0.2-2.2-2-2.5v-1.1c2-0.3,3.9-0.7,5.6-1.3v11.6c0,2.3,0.2,2.5,2.3,2.7v1.1
		H408z M409.6,108.1c0-1.3,1-2.2,2.2-2.2c1.2,0,2.1,0.9,2.1,2.2c0,1.1-0.9,2.1-2.2,2.1C410.7,110.3,409.6,109.3,409.6,108.1z"/>
	<path d="M425.6,135.7v-1.2c2.5-0.3,2.7-0.4,2.7-2.5v-4.9l-3,1.3c-5.1,0-7.5-3.9-7.5-7.2c0-4.9,4.4-8.6,9.3-8.6
		c1.3,0.1,1.9,0.3,2.3,0.5c0.5,0.2,0.7,0.2,1,0.2c0.3,0,0.8-0.1,1.5-0.4l0.2,0.1c0,0.7-0.1,1.3-0.1,3.6V132c0,2.1,0.2,2.2,2.4,2.5
		v1.2H425.6z M428.3,115.5c-0.7-0.9-1.8-1.4-2.7-1.4c-1.8,0-3.8,1.9-3.8,6c0,4.1,2.7,6.2,4.8,6.2c0.7,0,1.3-0.1,1.8-0.4V115.5z"/>
	<path d="M451.9,127.2c-0.9,0.1-1.9,0.3-2.8,0.6c-1,0.2-2,0.5-2.8,0.7l-0.3-0.2V126c-0.7,0.5-1.2,1-2,1.5c-0.9,0.6-1.8,0.9-2.8,0.9
		c-2.6,0-4.3-1.6-4.3-4.9v-6.8c0-1.6-0.2-1.8-1.1-2l-0.9-0.2v-1.1c0.8,0,1.8-0.1,2.8-0.2c1-0.1,2.1-0.3,2.8-0.4
		c0,1.4-0.1,3.1-0.1,5.1v4.8c0,2.5,1.3,3.3,2.6,3.3c1.1,0,1.9-0.4,2.9-1.3v-8c0-1.6-0.2-1.9-1.2-2l-1.1-0.2v-1.1
		c0.9,0,2.1-0.1,3.2-0.2c1.1-0.1,2.1-0.3,2.7-0.4v11.1c0,1.7,0.3,2,1.4,2.1l0.9,0V127.2z"/>
	<path d="M466.1,124.9c-2.1,2.8-4.5,3.4-5.8,3.4c-4.3,0-6.8-3.3-6.8-7.3c0-2.6,1.1-4.7,2.4-6.1c1.4-1.5,3.3-2.4,5-2.4h0
		c3,0,5.3,2.6,5.3,5.4c0,0.7-0.1,1.2-0.9,1.3c-0.6,0.1-4.8,0.4-8.3,0.6c0.1,3.9,2.3,5.7,4.7,5.7c1.4,0,2.6-0.5,3.8-1.5L466.1,124.9z
		 M457.2,118.2c1.6,0,3.1,0,4.8-0.1c0.5,0,0.7-0.1,0.7-0.7c0-1.7-0.9-3.4-2.4-3.4C458.8,114,457.6,115.6,457.2,118.2z"/>
</g>
<g>
	<g>
		<path class="st2" d="M28.4,105c0.6-3.2,1.1-5.8,1.8-8.1c-1.8-0.3-3.8-0.7-6.1-1.3c-4.8-1.2-8-2.1-12.3-5.6c-1.6-1.3-2.9-2.6-4.1-4
			c3.5,12.3,10.7,23,20.4,30.8C27.2,112.4,27.7,109.3,28.4,105z"/>
		<path class="st2" d="M70.8,13.4c4.6,4.3,8.4,10.9,9.8,17.1c3.8-2.7,8.1-4.7,12.2-5.6c1.7-0.4,3.6-0.6,6-0.6c1.1,0,2.2,0,3.3,0.1
			c1.1,0,2.1,0.1,3.2,0.1c0.7,0,1.4,0,2.2-0.1C96.5,14.6,82.2,8.6,66.4,8.6c-0.9,0-1.9,0-2.8,0.1C66.1,10,68.7,11.4,70.8,13.4z"/>
		<path class="st2" d="M120,58.9c-2.5,4.3-4.6,7.4-7.1,10.3c1,0.8,2.1,1.6,3.2,2.6c3.8,3.1,6.3,5.3,8.7,10.3
			c0.3,0.6,0.5,1.1,0.7,1.7c1.1-4.6,1.7-9.4,1.7-14.4c0-6.9-1.2-13.6-3.3-19.8C123.2,53.2,121.9,55.6,120,58.9z"/>
		<path class="st2" d="M102.8,113.3c-1.3,0.2-2.7,0.3-4.1,0.3c-6.8,0-13.9-2.1-18.5-5.4c-0.1-0.1-0.2-0.2-0.4-0.3
			c-0.1,0.4-0.2,0.8-0.3,1.3c-1.7,6.8-7.4,14.5-13.9,18.6c-1.5,0.9-3,1.6-4.6,2.2c1.8,0.2,3.6,0.3,5.4,0.3
			c17.7,0,33.6-7.6,44.8-19.6C108.5,111.8,105.8,112.9,102.8,113.3z"/>
		<path class="st2" d="M11.7,58.7c2-2.3,4.1-4.6,6.7-6.3c3.9-2.6,9.1-4.5,14.2-5.2c-0.3-0.9-0.6-1.9-0.8-2.8
			c-1.4-5.7-1.6-10.6-1.6-15.1c0-3.6,0.1-6.3,1.1-9.5C17,29.8,7.3,45.9,5.8,64.3C7.9,62.8,9.8,60.8,11.7,58.7z"/>
	</g>
	<path class="st1" d="M55.8,68.8c-0.4,6.4,4.5,11.8,10.9,12.2c6.4,0.4,11.9-4.5,12.2-10.9c0.4-6.3-4.5-11.8-10.9-12.2
		c-0.2,0-0.4,0-0.7,0C61.2,57.9,56.1,62.7,55.8,68.8z"/>
	<path class="st0" d="M121.3,103.2l0.5,0c0,0,0,0,0,0c0.5,0,1.1,0,1.6,0.1c1.5,0.1,2.9,0.4,4.2,0.9c-0.3-0.7-0.6-1.3-1-2
		c-1-1.9-2-3.9-2.4-6l-0.5-2.3c-0.7-3.4-1.4-6.7-2.9-9.8c-1.9-4-3.6-5.6-7.5-8.8c-1.5-1.2-2.9-2.3-4.1-3.2l-3-2.1l2.5-2.7
		c2.7-2.9,4.8-5.9,7.4-10.5c2.5-4.3,3.5-6.5,3.9-10.9c0.3-3.5-0.2-6.8-0.8-10.2l-0.4-2.3c-0.3-2.1-0.1-4.3,0.1-6.5
		c0.1-0.7,0.2-1.4,0.2-2.2c-1,0.9-2.2,1.7-3.6,2.3c-0.6,0.3-1.3,0.6-1.9,0.8c-3.1,1.1-6.2,1.2-8.5,1.2c-1.1,0-2.2,0-3.3-0.1
		c-3.6-0.1-6-0.1-8.1,0.4c-4,0.9-8.5,3.1-12,6l-4.5,3.6l-0.8-5.7c-0.8-5.7-4.3-12.3-8.8-16.4c-1.9-1.8-4.3-3-6.8-4.4
		c-3.4-1.8-6.9-3.7-9.6-6.9c-0.4-0.5-0.9-1.1-1.3-1.7c-0.9-1.3-1.5-2.5-1.9-3.8c-0.3,0.6-0.6,1.3-0.9,2c-0.9,2-1.8,4-3.1,5.7
		l-1.5,1.8c-2.2,2.7-4.3,5.3-5.8,8.4c-1.9,4-2.1,6.4-2.1,11.3c0,4.2,0.1,8.8,1.4,14c0.3,1.2,0.7,2.5,1.2,3.8l1.5,4l-4.3,0.4
		c-4.9,0.4-10,2.2-13.7,4.6c-2.2,1.4-4,3.5-5.9,5.6c-2.6,2.9-5.2,5.8-9,7.7c-0.6,0.3-1.2,0.6-1.9,0.8c-1.4,0.5-2.8,0.9-4.1,1
		c0.6,0.5,1.1,0.9,1.7,1.4c1.7,1.3,3.5,2.7,4.8,4.4l1.4,1.9c2.1,2.8,4.1,5.4,6.8,7.6c3.4,2.8,5.7,3.5,10.5,4.7
		c2.7,0.7,5,1.1,7.1,1.4l3.8,0.5L35,96.8c-0.9,2.6-1.5,5.3-2.1,8.9c-0.9,4.9-1.1,7.3,0.1,11.5c0.9,3.4,2.5,6.3,4.2,9.3l1.1,2.1
		c1,1.9,1.6,4.2,2.1,6.2c0.2,0.7,0.4,1.4,0.5,2.1c0.7-1.2,1.5-2.3,2.6-3.4c0.5-0.5,1-1,1.5-1.4c3.3-2.7,7.1-3.9,10.7-5.1
		c2.7-0.9,5.3-1.7,7.5-3.1c5.4-3.5,10.6-10.3,11.9-15.9c0.2-1,0.5-2,0.7-3l1.1-5l4.1,3c0.6,0.5,1.2,0.9,1.8,1.4
		c3.9,2.8,10,4.5,15.9,4.5c1.2,0,2.4-0.1,3.5-0.2c2.5-0.4,5-1.4,7.7-2.5C113.2,104.9,117,103.3,121.3,103.2z M84.8,70.4
		c-0.5,9.2-8.2,16.4-17.4,16.4c-0.3,0-0.7,0-1,0c-4.7-0.3-8.9-2.3-12.1-5.8c-3.1-3.5-4.7-7.9-4.4-12.6c0.5-9.5,8.7-17,18.4-16.4
		c4.7,0.3,8.9,2.3,12.1,5.8C83.5,61.3,85.1,65.8,84.8,70.4z"/>
</g>
</svg>
