{
  "accessors": [
    {
      "bufferView": 2,
      "componentType": 5126,
      "count": 65532,
      "max": [
        0.32785001397132874,
        0.29378369450569153,
        0.91510087251663208
      ],
      "min": [
        -0.32785001397132874,
        -0.29378357529640198,
        -0.92285126447677612
      ],
      "type": "VEC3"
    },
    {
      "bufferView": 2,
      "byteOffset": 786384,
      "componentType": 5126,
      "count": 65532,
      "max": [
        1,
        0.99999892711639404,
        0.99090820550918579
      ],
      "min": [
        -1,
        -0.99999821186065674,
        -0.98842924833297729
      ],
      "type": "VEC3"
    },
    {
      "bufferView": 3,
      "componentType": 5126,
      "count": 65532,
      "max": [
        0.9999963641166687,
        0.99999964237213135,
        0.99508291482925415,
        1
      ],
      "min": [
        -0.99999850988388062,
        -0.99999856948852539,
        -0.7674747109413147,
        -1
      ],
      "type": "VEC4"
    },
    {
      "bufferView": 1,
      "componentType": 5126,
      "count": 65532,
      "max": [
        0.5206180214881897,
        0.99209302663803101
      ],
      "min": [
        0.0079190004616975784,
        0.89330500364303589
      ],
      "type": "VEC2"
    },
    {
      "bufferView": 0,
      "componentType": 5125,
      "count": 372240,
      "max": [
        65531
      ],
      "min": [
        0
      ],
      "type": "SCALAR"
    },
    {
      "bufferView": 2,
      "byteOffset": 1572768,
      "componentType": 5126,
      "count": 21575,
      "max": [
        0.32626298069953918,
        0.29378369450569153,
        0.92321181297302246
      ],
      "min": [
        -0.32480096817016602,
        -0.2917228639125824,
        -0.92321187257766724
      ],
      "type": "VEC3"
    },
    {
      "bufferView": 2,
      "byteOffset": 1831668,
      "componentType": 5126,
      "count": 21575,
      "max": [
        1,
        0.99999892711639404,
        0.99992692470550537
      ],
      "min": [
        -1,
        -0.99993759393692017,
        -0.99990910291671753
      ],
      "type": "VEC3"
    },
    {
      "bufferView": 3,
      "byteOffset": 1048512,
      "componentType": 5126,
      "count": 21575,
      "max": [
        0.9999995231628418,
        0.99999558925628662,
        0.99388939142227173,
        1
      ],
      "min": [
        -0.99999994039535522,
        -0.99999105930328369,
        -0.99524426460266113,
        -1
      ],
      "type": "VEC4"
    },
    {
      "bufferView": 1,
      "byteOffset": 524256,
      "componentType": 5126,
      "count": 21575,
      "max": [
        0.99209898710250854,
        0.99209201335906982
      ],
      "min": [
        0.0079009998589754105,
        0.56508100032806396
      ],
      "type": "VEC2"
    },
    {
      "bufferView": 0,
      "byteOffset": 1488960,
      "componentType": 5125,
      "count": 105315,
      "max": [
        21574
      ],
      "min": [
        0
      ],
      "type": "SCALAR"
    }
  ],
  "asset": {
    "extras": {
      "author": "Yann.Klein (https://sketchfab.com/Yann.Klein)",
      "license": "CC-BY-4.0 (http://creativecommons.org/licenses/by/4.0/)",
      "source": "https://sketchfab.com/models/482673b236054faaa416e283c17d894a",
      "title": "My pot"
    },
    "generator": "Sketchfab-4.15.0",
    "version": "2.0"
  },
  "bufferViews": [
    {
      "buffer": 0,
      "byteLength": 1910220,
      "byteOffset": 0,
      "name": "floatBufferViews",
      "target": 34963
    },
    {
      "buffer": 0,
      "byteLength": 696856,
      "byteOffset": 1910220,
      "byteStride": 8,
      "name": "floatBufferViews",
      "target": 34962
    },
    {
      "buffer": 0,
      "byteLength": 2090568,
      "byteOffset": 2607076,
      "byteStride": 12,
      "name": "floatBufferViews",
      "target": 34962
    },
    {
      "buffer": 0,
      "byteLength": 1393712,
      "byteOffset": 4697644,
      "byteStride": 16,
      "name": "floatBufferViews",
      "target": 34962
    }
  ],
  "buffers": [
    {
      "byteLength": 6091356,
      "uri": "scene.bin"
    }
  ],
  "images": [
    {
      "uri": "textures/material_0_baseColor.jpeg"
    }
  ],
  "materials": [
    {
      "doubleSided": true,
      "emissiveFactor": [
        0,
        0,
        0
      ],
      "name": "material_0",
      "pbrMetallicRoughness": {
        "baseColorFactor": [
          1,
          1,
          1,
          1
        ],
        "baseColorTexture": {
          "index": 0,
          "texCoord": 0
        },
        "metallicFactor": 0,
        "roughnessFactor": 1
      }
    }
  ],
  "meshes": [
    {
      "primitives": [
        {
          "attributes": {
            "NORMAL": 1,
            "POSITION": 0,
            "TANGENT": 2,
            "TEXCOORD_0": 3
          },
          "indices": 4,
          "material": 0,
          "mode": 4
        }
      ]
    },
    {
      "primitives": [
        {
          "attributes": {
            "NORMAL": 6,
            "POSITION": 5,
            "TANGENT": 7,
            "TEXCOORD_0": 8
          },
          "indices": 9,
          "material": 0,
          "mode": 4
        }
      ]
    }
  ],
  "nodes": [
    {
      "children": [
        1
      ],
      "name": "RootNode (gltf orientation matrix)",
      "rotation": [
        -0.70710678118654746,
        -0,
        -0,
        0.70710678118654757
      ]
    },
    {
      "children": [
        2
      ],
      "name": "RootNode (model correction matrix)"
    },
    {
      "children": [
        3,
        4
      ],
      "name": "pot4.obj.cleaner.materialmerger.gles"
    },
    {
      "mesh": 0,
      "name": ""
    },
    {
      "mesh": 1,
      "name": ""
    }
  ],
  "samplers": [
    {
      "magFilter": 9729,
      "minFilter": 9987,
      "wrapS": 10497,
      "wrapT": 10497
    }
  ],
  "scene": 0,
  "scenes": [
    {
      "name": "OSG_Scene",
      "nodes": [
        0
      ]
    }
  ],
  "textures": [
    {
      "sampler": 0,
      "source": 0
    }
  ]
}

